<?xml version="1.0" encoding="UTF-8"?> <svg xmlns="http://www.w3.org/2000/svg" width="246" height="80" viewBox="0 0 246 80" fill="none"><g clip-path="url(#clip0_701_55)"><path d="M76.7012 55.9087C70.5485 70.0861 56.4337 80.0006 39.9978 80.0006C39.3288 80.0006 38.6648 79.9854 38.006 79.9499C16.8364 78.9108 0 61.4185 0 39.9877C0 36.404 0.481472 32.9319 1.3684 29.6271C2.27053 28.664 3.53756 28.0608 4.9465 28.0608C7.67823 28.0608 9.90315 30.3063 9.90315 33.0586V34.6654C9.90315 34.6908 9.89301 34.7212 9.89301 34.7415V46.9116C9.89301 51.9449 13.9729 56.0405 18.9853 56.0405C23.9976 56.0405 28.0775 51.9449 28.0775 46.9116V37.0934C28.0775 37.0579 28.0674 37.0325 28.0674 36.9971V33.0536C28.0674 30.3012 30.2923 28.0557 33.024 28.0557C35.7557 28.0557 37.9806 30.3012 37.9806 33.0536V46.9065C37.9806 51.9398 42.0554 56.0354 47.0678 56.0354C52.0802 56.0354 56.1601 51.9398 56.1601 46.9065V37.0883C56.1601 37.0528 56.1499 37.0275 56.1499 36.992V33.0485C56.1499 30.2961 58.3748 28.0507 61.1066 28.0507C63.8383 28.0507 66.0632 30.2961 66.0632 33.0485V33.3729C66.0632 33.3729 66.0632 33.4185 66.0632 33.4439V46.9015C66.0632 51.5343 69.5197 55.3765 73.9746 55.9543C74.3547 56.005 74.75 56.0304 75.1453 56.0304C75.6825 56.0304 76.2046 55.9746 76.7215 55.8884" fill="#073C8C"></path><path d="M79.9999 39.9978C79.9999 43.6219 79.5083 47.1194 78.6112 50.4597C78.6112 50.4597 78.6062 50.4699 78.6062 50.4749C78.6011 50.4749 78.596 50.4851 78.591 50.4851C77.6939 51.3721 76.4775 51.9195 75.1294 51.9195C72.3977 51.9195 70.1728 49.6741 70.1728 46.9217V44.0477C70.1728 44.0173 70.1728 43.997 70.1728 43.9768V33.0687C70.1728 28.0354 66.098 23.9348 61.0856 23.9348C56.0732 23.9348 51.9934 28.0354 51.9934 33.0687V44.2201C51.9934 44.2454 52.0035 44.2758 52.0035 44.3062V46.9217C52.0035 49.6741 49.7786 51.9195 47.0468 51.9195C44.3151 51.9195 42.0902 49.6741 42.0902 46.9217V33.0687C42.0902 28.0354 38.0154 23.9348 33.003 23.9348C27.9906 23.9348 23.9108 28.0354 23.9108 33.0687V44.2201C23.9108 44.2454 23.9209 44.2809 23.9209 44.3062V46.9217C23.9209 49.6741 21.696 51.9195 18.9643 51.9195C16.2325 51.9195 14.0076 49.6741 14.0076 46.9217V45.3149C14.0076 45.2896 14.0178 45.2642 14.0178 45.2389V33.0738C14.0178 28.0405 9.94299 23.95 4.93059 23.9399C4.36803 23.9399 3.82067 23.9956 3.28345 24.097C9.43617 9.91454 23.5509 0 39.992 0C40.2099 0 40.4177 0 40.6356 0C62.4287 0.344677 79.9948 18.1209 79.9948 39.9978" fill="#55C6C2"></path><path d="M233.892 55.7477C231.758 55.7477 229.829 55.2639 228.105 54.2963C226.381 53.301 225.027 51.9187 224.042 50.1493C223.057 48.3522 222.564 46.2787 222.564 43.9288C222.564 41.6064 223.071 39.5468 224.083 37.7497C225.095 35.9527 226.477 34.5703 228.228 33.6027C229.979 32.6351 231.936 32.1513 234.097 32.1513C236.259 32.1513 238.215 32.6351 239.966 33.6027C241.717 34.5703 243.099 35.9527 244.112 37.7497C245.124 39.5468 245.63 41.6064 245.63 43.9288C245.63 46.2511 245.11 48.3108 244.071 50.1078C243.031 51.9048 241.608 53.301 239.802 54.2963C238.024 55.2639 236.054 55.7477 233.892 55.7477ZM233.892 51.6422C235.096 51.6422 236.218 51.3519 237.258 50.7713C238.325 50.1907 239.187 49.3199 239.843 48.1587C240.5 46.9975 240.828 45.5876 240.828 43.9288C240.828 42.27 240.514 40.8738 239.884 39.7403C239.255 38.5791 238.42 37.7082 237.381 37.1277C236.341 36.5471 235.219 36.2568 234.015 36.2568C232.811 36.2568 231.689 36.5471 230.65 37.1277C229.637 37.7082 228.83 38.5791 228.228 39.7403C227.626 40.8738 227.325 42.27 227.325 43.9288C227.325 46.3893 227.941 48.2969 229.172 49.6516C230.431 50.9787 232.004 51.6422 233.892 51.6422Z" fill="#073C8C"></path><path d="M218.525 32.1513V55.9313H216.185H213.845V32.1513H218.525Z" fill="#073C8C"></path><path d="M214.392 28.3233C214.879 28.8075 215.483 29.0496 216.203 29.0496C216.899 29.0496 217.491 28.8075 217.979 28.3233C218.466 27.8392 218.71 27.2397 218.71 26.525C218.71 25.8102 218.466 25.2108 217.979 24.7266C217.491 24.2424 216.899 24.0003 216.203 24.0003C215.483 24.0003 214.879 24.2424 214.392 24.7266C213.904 25.2108 213.661 25.8102 213.661 26.525C213.661 27.2397 213.904 27.8392 214.392 28.3233Z" fill="#073C8C"></path><path d="M205.669 55.9745C204.95 55.9745 204.346 55.7324 203.858 55.2483C203.371 54.7641 203.127 54.1646 203.127 53.4499C203.127 52.7351 203.371 52.1357 203.858 51.6515C204.346 51.1673 204.95 50.9252 205.669 50.9252C206.366 50.9252 206.958 51.1673 207.445 51.6515C207.933 52.1357 208.177 52.7351 208.177 53.4499C208.177 54.1646 207.933 54.7641 207.445 55.2483C206.958 55.7324 206.366 55.9745 205.669 55.9745Z" fill="#073C8C"></path><path d="M173.838 43.9923C173.838 41.6976 174.304 39.6656 175.234 37.8962C176.191 36.1268 177.477 34.7583 179.092 33.7906C180.733 32.7954 182.553 32.2977 184.55 32.2977C186.028 32.2977 187.478 32.6295 188.901 33.293C190.351 33.9289 191.5 34.7859 192.348 35.8642V24.0162H197.068V55.8942H192.348V52.079C191.582 53.1848 190.515 54.0972 189.147 54.816C187.806 55.5348 186.26 55.8942 184.509 55.8942C182.539 55.8942 180.733 55.3966 179.092 54.4013C177.477 53.3784 176.191 51.9684 175.234 50.1713C174.304 48.3467 173.838 46.287 173.838 43.9923ZM192.348 44.0752C192.348 42.4994 192.02 41.1309 191.363 39.9697C190.734 38.8085 189.9 37.9238 188.86 37.3156C187.82 36.7074 186.698 36.4033 185.494 36.4033C184.29 36.4033 183.169 36.7074 182.129 37.3156C181.089 37.8962 180.241 38.7671 179.584 39.9282C178.955 41.0617 178.64 42.4164 178.64 43.9923C178.64 45.5682 178.955 46.9505 179.584 48.1393C180.241 49.3281 181.089 50.2405 182.129 50.8763C183.196 51.4846 184.318 51.7887 185.494 51.7887C186.698 51.7887 187.82 51.4846 188.86 50.8763C189.9 50.2681 190.734 49.3834 191.363 48.2222C192.02 47.0334 192.348 45.6511 192.348 44.0752Z" fill="#073C8C"></path><path d="M160.333 32.1513C162.112 32.1513 163.699 32.5245 165.094 33.2709C166.517 34.0174 167.625 35.1233 168.418 36.5886C169.212 38.0538 169.609 39.8232 169.609 41.8967V56.0003H164.971V42.6017C164.971 40.5559 164.465 38.9938 163.452 37.9156C162.44 36.8097 161.058 36.2568 159.307 36.2568C157.556 36.2568 156.16 36.8097 155.121 37.9156C154.108 38.9938 153.602 40.5559 153.602 42.6017V56.0003H148.923V32.1513H153.602V35.1371C154.368 34.1971 155.34 33.4645 156.516 32.9392C157.72 32.4139 158.992 32.1513 160.333 32.1513Z" fill="#073C8C"></path><path d="M144.621 43.3896C144.621 44.2467 144.566 45.0208 144.457 45.712H127.178C127.315 47.5367 127.985 49.0019 129.189 50.1078C130.393 51.2137 131.871 51.7666 133.622 51.7666C136.139 51.7666 137.918 50.7022 138.957 48.5734H144.005C143.321 50.6746 142.076 52.4025 140.271 53.7572C138.492 55.0842 136.276 55.7477 133.622 55.7477C131.46 55.7477 129.518 55.2639 127.794 54.2963C126.097 53.301 124.757 51.9187 123.772 50.1493C122.814 48.3522 122.335 46.2787 122.335 43.9288C122.335 41.5788 122.8 39.5191 123.731 37.7497C124.688 35.9527 126.015 34.5703 127.712 33.6027C129.435 32.6351 131.406 32.1513 133.622 32.1513C135.756 32.1513 137.658 32.6212 139.327 33.5612C140.996 34.5012 142.295 35.8283 143.226 37.5424C144.156 39.2288 144.621 41.1779 144.621 43.3896ZM139.737 41.8967C139.71 40.155 139.094 38.7588 137.89 37.7082C136.686 36.6577 135.195 36.1324 133.417 36.1324C131.802 36.1324 130.421 36.6577 129.271 37.7082C128.122 38.7312 127.438 40.1273 127.219 41.8967H139.737Z" fill="#073C8C"></path><path d="M118.043 26.5195V55.967H113.364V36.2272L104.663 55.967H101.421L92.6788 36.2272V55.967H88V26.5195H90.5241H93.0482L103.062 49.7465L113.036 26.5195H115.539H118.043Z" fill="#073C8C"></path></g><defs><clipPath id="clip0_701_55"><rect width="246" height="80" fill="white"></rect></clipPath></defs></svg> 