<?xml version="1.0" encoding="UTF-8"?>
<svg xmlns="http://www.w3.org/2000/svg" xmlns:xlink="http://www.w3.org/1999/xlink" width="700" height="400" viewBox="0 0 700 400">
  <defs>
    <style>
      .timeline {
        stroke: #333;
        stroke-width: 3px;
      }
      .milestone {
        stroke: #333;
        stroke-width: 2px;
        fill: none;
      }
      .box-main {
        fill: #cce5ff;
        stroke: #0d6efd;
        stroke-width: 2px;
      }
      .box-library {
        fill: #d1e7dd;
        stroke: #198754;
        stroke-width: 2px;
      }
      .box-child {
        fill: #f8d7da;
        stroke: #dc3545;
        stroke-width: 2px;
      }
      .box-system {
        fill: #e2e3e5;
        stroke: #6c757d;
        stroke-width: 2px;
      }
      .text {
        font-family: Arial, sans-serif;
        font-size: 14px;
        text-anchor: middle;
      }
      .title {
        font-family: Arial, sans-serif;
        font-size: 18px;
        font-weight: bold;
        text-anchor: middle;
      }
      .arrow {
        stroke: #333;
        stroke-width: 2px;
        fill: none;
        marker-end: url(#arrowhead);
      }
      .signal-arrow {
        stroke: #dc3545;
        stroke-width: 2px;
        stroke-dasharray: 5,5;
        fill: none;
        marker-end: url(#arrowhead);
      }
    </style>
    
    <marker id="arrowhead" markerWidth="10" markerHeight="7" refX="9" refY="3.5" orient="auto">
      <polygon points="0 0, 10 3.5, 0 7" fill="#333" />
    </marker>
  </defs>

  <!-- Title -->
  <text x="350" y="30" class="title">Signal Race Condition Timeline</text>

  <!-- Timeline -->
  <line x1="50" y1="200" x2="650" y2="200" class="timeline" />
  
  <!-- Timeline markers -->
  <line x1="100" y1="190" x2="100" y2="210" class="milestone" />
  <line x1="200" y1="190" x2="200" y2="210" class="milestone" />
  <line x1="300" y1="190" x2="300" y2="210" class="milestone" />
  <line x1="400" y1="190" x2="400" y2="210" class="milestone" />
  <line x1="500" y1="190" x2="500" y2="210" class="milestone" />
  <line x1="600" y1="190" x2="600" y2="210" class="milestone" />
  
  <!-- Events on timeline -->
  <!-- 1. Library creates child -->
  <rect x="80" y="120" width="120" height="40" class="box-library" rx="5" ry="5" />
  <text x="140" y="143" class="text">Library creates child</text>
  
  <!-- 2. Child process runs -->
  <rect x="180" y="240" width="80" height="40" class="box-child" rx="5" ry="5" />
  <text x="220" y="263" class="text">Child runs</text>
  
  <!-- 3. Child exits -->
  <rect x="280" y="240" width="80" height="40" class="box-child" rx="5" ry="5" />
  <text x="320" y="263" class="text">Child exits</text>
  
  <!-- 4. Kernel sends SIGCHLD -->
  <rect x="360" y="300" width="80" height="40" class="box-system" rx="5" ry="5" />
  <text x="400" y="323" class="text">SIGCHLD</text>
  
  <!-- 5. Main program's signal handler runs -->
  <rect x="420" y="120" width="130" height="40" class="box-main" rx="5" ry="5" />
  <text x="485" y="143" class="text">Signal handler reaps</text>
  
  <!-- 6. Library tries to check result -->
  <rect x="530" y="240" width="100" height="40" class="box-library" rx="5" ry="5" />
  <text x="580" y="263" class="text">Library checks</text>
  
  <!-- Library error -->
  <rect x="560" y="300" width="80" height="40" class="box-library" rx="5" ry="5" />
  <text x="600" y="323" class="text">ECHILD</text>
  
  <!-- Arrows -->
  <path d="M 140 160 L 140 180 L 220 180 L 220 240" class="arrow" />
  <path d="M 220 280 L 220 320 L 260 320 L 280 280" class="arrow" />
  <path d="M 320 280 L 320 320 L 360 320" class="arrow" />
  
  <!-- SIGCHLD signals -->
  <path d="M 400 300 L 400 240 L 460 180 L 485 160" class="signal-arrow" />
  
  <!-- Library tries too late -->
  <path d="M 580 240 L 580 200" class="arrow" />
  <path d="M 580 280 L 580 300" class="arrow" />
  
  <!-- Timeline labels -->
  <text x="100" y="180" class="text" style="font-size: 12px; text-anchor: middle;">t=0s</text>
  <text x="220" y="180" class="text" style="font-size: 12px; text-anchor: middle;">t=0.1s</text>
  <text x="320" y="180" class="text" style="font-size: 12px; text-anchor: middle;">t=1.1s</text>
  <text x="400" y="180" class="text" style="font-size: 12px; text-anchor: middle;">t=1.15s</text>
  <text x="485" y="180" class="text" style="font-size: 12px; text-anchor: middle;">t=1.2s</text>
  <text x="580" y="180" class="text" style="font-size: 12px; text-anchor: middle;">t=2.1s</text>
  
  <!-- Annotation for race -->
  <text x="485" y="100" class="text" style="font-weight: bold;">RACE WINNER!</text>
  <text x="580" y="360" class="text" style="font-weight: bold; fill: #dc3545">RACE LOSER!</text>
  <text x="580" y="375" class="text" style="font-size: 12px;">"Already reaped!"</text>
</svg>